<svg width="24" height="24" viewBox="0 0 24 24" fill="none" xmlns="http://www.w3.org/2000/svg">
<path fill-rule="evenodd" clip-rule="evenodd" d="M11 21C11 21.553 11.448 22 12 22C12.552 22 13 21.553 13 21C13 19.897 13.897 19 15 19H22C22.553 19 23 18.553 23 18V3C23 2.448 22.553 2 22 2H16C14.3662 2 12.913 2.78765 12 4.00315C11.087 2.78765 9.63376 2 8 2H2C1.448 2 1 2.448 1 3V18C1 18.553 1.448 19 2 19H9C10.103 19 11 19.897 11 21ZM11 17.537V7C11 5.346 9.654 4 8 4H3V17H9C9.728 17 10.411 17.195 11 17.537ZM13 17.537C13.589 17.195 14.272 17 15 17H21V4H16C14.346 4 13 5.346 13 7V17.537Z" fill="white"/>
</svg>
