<?xml version="1.0" encoding="utf-8"?>
<!-- Generator: Adobe Illustrator 24.3.0, SVG Export Plug-In . SVG Version: 6.00 Build 0)  -->
<svg version="1.1" id="Layer_1" xmlns="http://www.w3.org/2000/svg" xmlns:xlink="http://www.w3.org/1999/xlink" x="0px" y="0px"
	 viewBox="0 0 24 24" xml:space="preserve">
<g>
	<path d="M3.3,20.3c0-0.4,0.2-0.9,0.5-1.2c0.3-0.3,0.7-0.5,1.2-0.5h9"/>
	<path d="M14,15.3V22H5c-0.4,0-0.9-0.2-1.2-0.5c-0.3-0.3-0.5-0.7-0.5-1.2v-10c0-0.4,0.2-0.9,0.5-1.2
		C4.1,8.8,4.6,8.7,5,8.7h2.3"/>
	<path d="M14,15.3c3.7,0,6.7-3,6.7-6.7C20.7,5,17.7,2,14,2S7.3,5,7.3,8.7C7.3,12.3,10.3,15.3,14,15.3z"/>
	<path d="M14,6v5.3"/>
	<path d="M11.3,8.7h5.3"/>
</g>
</svg>
