<svg width="24" height="24" viewBox="0 0 24 24" fill="none" xmlns="http://www.w3.org/2000/svg">
<path d="M12 14C11.448 14 11 13.553 11 13V11H9C8.448 11 8 10.552 8 10C8 9.448 8.448 9 9 9H11V7C11 6.448 11.448 6 12 6C12.552 6 13 6.448 13 7V9H15C15.553 9 16 9.448 16 10C16 10.552 15.553 11 15 11H13V13C13 13.553 12.552 14 12 14Z" fill="white"/>
<path fill-rule="evenodd" clip-rule="evenodd" d="M19 22C18.829 22 18.657 21.956 18.504 21.868L12 18.151L5.496 21.868C5.186 22.045 4.806 22.044 4.498 21.865C4.19 21.686 4 21.356 4 21V5C4 3.346 5.346 2 7 2H17C18.654 2 20 3.346 20 5V21C20 21.356 19.811 21.686 19.502 21.865C19.347 21.955 19.174 22 19 22ZM12 16C12.171 16 12.342 16.044 12.496 16.132L18 19.276V5C18 4.449 17.552 4 17 4H7C6.449 4 6 4.449 6 5V19.276L11.504 16.131C11.658 16.044 11.829 16 12 16Z" fill="white"/>
</svg>
