<?xml version="1.0" encoding="utf-8"?>
<!-- Generator: Adobe Illustrator 24.3.0, SVG Export Plug-In . SVG Version: 6.00 Build 0)  -->
<svg version="1.1" id="Layer_1" xmlns="http://www.w3.org/2000/svg" xmlns:xlink="http://www.w3.org/1999/xlink" x="0px" y="0px"
	 width="24px" height="24px" viewBox="0 0 24 24" style="enable-background:new 0 0 24 24;" xml:space="preserve">
<style type="text/css">
	.st0{fill-rule:evenodd;clip-rule:evenodd;fill:#373737;}
</style>
<path class="st0" d="M11,21c0,0.6,0.4,1,1,1s1-0.4,1-1c0-1.1,0.9-2,2-2h7c0.6,0,1-0.4,1-1V3c0-0.6-0.4-1-1-1h-6c-1.6,0-3.1,0.8-4,2
	c-0.9-1.2-2.4-2-4-2H2C1.4,2,1,2.4,1,3v15c0,0.6,0.4,1,1,1h7C10.1,19,11,19.9,11,21z M11,17.5V7c0-1.7-1.3-3-3-3H3v13h6
	C9.7,17,10.4,17.2,11,17.5z M13,17.5c0.6-0.3,1.3-0.5,2-0.5h6V4h-5c-1.7,0-3,1.3-3,3V17.5z"/>
</svg>
