<svg width="24" height="24" viewBox="0 0 24 24" fill="none" xmlns="http://www.w3.org/2000/svg">
<path d="M9 11H15C15.553 11 16 10.552 16 10C16 9.448 15.553 9 15 9H9C8.448 9 8 9.448 8 10C8 10.552 8.448 11 9 11Z" fill="white"/>
<path fill-rule="evenodd" clip-rule="evenodd" d="M18.504 21.868C18.657 21.956 18.829 22 19 22C19.174 22 19.347 21.955 19.502 21.865C19.811 21.686 20 21.356 20 21V5C20 3.346 18.654 2 17 2H7C5.346 2 4 3.346 4 5V21C4 21.356 4.19 21.686 4.498 21.865C4.806 22.044 5.186 22.045 5.496 21.868L12 18.151L18.504 21.868ZM12.496 16.132C12.342 16.044 12.171 16 12 16C11.829 16 11.658 16.044 11.504 16.131L6 19.276V5C6 4.449 6.449 4 7 4H17C17.552 4 18 4.449 18 5V19.276L12.496 16.132Z" fill="white"/>
</svg>
